<svg id="Layer_1" data-name="Layer 1" xmlns="http://www.w3.org/2000/svg" viewBox="0 0 152.13 43.86"><defs><style>.cls-1{fill:#dc9610;}.cls-2{fill:#fff;}.cls-3{fill:#bf4818;}</style></defs><rect class="cls-1" width="87.68" height="22.95" rx="5"/><rect class="cls-1" x="89.93" width="62.2" height="22.95" rx="5"/><path class="cls-2" d="M94.88,4.14h5.28c3.16,0,4.82.55,6.22,2.11a8.1,8.1,0,0,1,1.92,5.47,8.41,8.41,0,0,1-2,5.71c-1.35,1.42-3.08,2-6,2h-5.4Zm5.87,12.37A3.29,3.29,0,0,0,104,15a6.14,6.14,0,0,0,.77-3.24A5.94,5.94,0,0,0,104,8.62a3.09,3.09,0,0,0-3-1.54H98.39v9.43Z" transform="translate(-0.18)"/><path class="cls-2" d="M113.7,16.37l-1,3.08h-3.81l5.45-15.31h4.37l5,15.31h-4l-.84-3.08Zm2.76-8.81-1.89,6h3.53Z" transform="translate(-0.18)"/><path class="cls-2" d="M131,19.45h-3.5V7.08h-4.73V4.14h13V7.08H131Z" transform="translate(-0.18)"/><path class="cls-2" d="M139.37,16.37l-1,3.08h-3.81L140,4.14h4.37l4.95,15.31h-4l-.84-3.08Zm2.76-8.81-1.89,6h3.53Z" transform="translate(-0.18)"/><path class="cls-3" d="M10.82,43.52,6.4,35.69l-1.61-3c0,.8,0,1.38,0,1.83,0,.83,0,1.72,0,2.69v6.29H1.66V28.21H5.3l4.3,7.62c.61,1.15,1,2,1.59,3.1,0-.62,0-1,0-1.49l0-1.15V28.21h3.2V43.52Z" transform="translate(-0.18)"/><path class="cls-3" d="M29.23,31.15H21.12v3H28.2v2.71H21.12v3.74h8.25v2.94H17.61V28.21H29.23Z" transform="translate(-0.18)"/><path class="cls-3" d="M39,43.52H35.53V31.15H30.81V28.21H43.75v2.94H39Z" transform="translate(-0.18)"/><path class="cls-3" d="M49,43.52l-4.2-15.31h3.48L50,35.07c.3,1.29.47,2,.86,3.81.26-1.74.42-2.66.66-3.81L53,28.21h3.36l1.45,7c.31,1.51.47,2.34.68,3.69.14-.66.4-1.9.79-3.69l1.73-7h3.48L60.11,43.52H56.84l-1.43-6.38c-.35-1.59-.67-3.24-.77-4-.3,1.65-.49,2.64-.79,4l-1.47,6.38Z" transform="translate(-0.18)"/><path class="cls-3" d="M80.76,36c0,4.66-3.15,7.87-7.71,7.87s-7.73-3.21-7.73-8a7.92,7.92,0,0,1,2.4-6A7.73,7.73,0,0,1,73,27.87C77.72,27.87,80.76,31.06,80.76,36ZM69,35.85C69,39,70.5,41,73.05,41s4-1.91,4-5S75.6,30.78,73,30.78,69,32.68,69,35.85Z" transform="translate(-0.18)"/><path class="cls-3" d="M86.88,43.52H83.45V28.21h6.79c2,0,3.13.25,4.07.92a3.81,3.81,0,0,1,1.49,3.21A3.59,3.59,0,0,1,93.21,36c1.54.48,2.08,1.28,2.2,3.3l.11,2.18a3.24,3.24,0,0,0,.63,2H92.72c-.42-.32-.54-.55-.58-1.33L92,40.1c-.14-1.88-1-2.71-2.78-2.71H86.88Zm3.43-8.84c1.29,0,2-.64,2-1.77s-.7-1.76-2-1.76H86.88v3.53Z" transform="translate(-0.18)"/><path class="cls-3" d="M112.65,43.52h-4.21l-4.72-6.93L102.27,38v5.49H98.84V28.21h3.43v5.65l5.26-5.65h4.6l-6.07,6Z" transform="translate(-0.18)"/><path class="cls-3" d="M117.83,43.52h-3.5V28.21h3.5Z" transform="translate(-0.18)"/><path class="cls-3" d="M130.28,43.52l-4.41-7.83-1.61-3c0,.8,0,1.38,0,1.83,0,.83,0,1.72,0,2.69v6.29h-3.2V28.21h3.64l4.3,7.62c.61,1.15,1,2,1.59,3.1,0-.62,0-1,0-1.49l0-1.15V28.21h3.2V43.52Z" transform="translate(-0.18)"/><path class="cls-3" d="M151,35.05v8.47h-2.1l-.49-2c-1.08,1.65-2.41,2.29-4.67,2.29-4.42,0-7.13-3-7.13-7.89s3-8.1,7.57-8.1a6.48,6.48,0,0,1,6.71,5l-3.39.2a3.13,3.13,0,0,0-3.3-2.27c-2.52,0-4.08,1.88-4.08,5,0,3.3,1.51,5.28,4.06,5.28A3.71,3.71,0,0,0,148,37.87h-3.81V35.05Z" transform="translate(-0.18)"/><path class="cls-2" d="M14.72,19.45,10.3,11.62l-1.61-3c.05.8.05,1.38.05,1.84,0,.82,0,1.72,0,2.68v6.29H5.56V4.14H9.2l4.3,7.62c.61,1.15,1,2,1.59,3.1,0-.62,0-1,0-1.49l0-1.15V4.14h3.21V19.45Z" transform="translate(-0.18)"/><path class="cls-2" d="M24.82,16.37l-1,3.08H20L25.47,4.14h4.38L34.8,19.45h-4L30,16.37Zm2.76-8.81-1.89,6h3.52Z" transform="translate(-0.18)"/><path class="cls-2" d="M42.43,19.45,40.27,11.3c-.16-.69-.3-1.17-.39-1.49-.12-.48-.14-.57-.28-1,0,.55,0,.94,0,1.19l0,1.47v8H36.46V4.14H41.4l2,8c.31,1.19.57,2.46.75,3.47a4.72,4.72,0,0,0,.1-.49l.25-1c.05-.28.14-.62.24-1s.23-1,.23-1l2-8h4.89V19.45h-3.2v-8l0-1.47a11.79,11.79,0,0,1,.05-1.19c-.26.92-.42,1.54-.49,1.74-.14.42-.21.72-.24.74l-2.13,8.17Z" transform="translate(-0.18)"/><path class="cls-2" d="M66.81,7.08H58.7v3h7.08v2.71H58.7v3.74H67v2.94H55.19V4.14H66.81Z" transform="translate(-0.18)"/><path class="cls-2" d="M69.53,4.14h5.28c3.15,0,4.81.55,6.22,2.11a8.09,8.09,0,0,1,1.91,5.47,8.41,8.41,0,0,1-2,5.71c-1.36,1.42-3.09,2-6,2H69.53Zm5.86,12.37A3.29,3.29,0,0,0,78.59,15a6,6,0,0,0,.78-3.24,6,6,0,0,0-.75-3.16,3.11,3.11,0,0,0-3-1.54H73v9.43Z" transform="translate(-0.18)"/></svg>